<svg width="112" height="112" viewBox="0 0 112 112" fill="none" xmlns="http://www.w3.org/2000/svg">
<circle cx="56" cy="56" r="52.5" stroke="#FAF3D3" stroke-width="7"/>
<path d="M82.0039 54.1679H82.7299C85.3039 54.1679 87.3499 52.0559 87.3499 49.5479C87.3499 47.0399 85.2379 44.9279 82.7299 44.9279H68.0119C67.1539 44.9279 66.5599 44.2019 66.6919 43.3439C67.6819 36.9419 69.0019 34.7639 69.6619 28.1639C70.3219 21.7619 61.2139 20.7059 59.8939 26.5799C57.4519 37.6019 48.3439 44.9939 45.3079 47.1719C44.7139 47.6339 44.3179 48.2939 44.3179 49.0859V75.4859C44.3179 76.4099 44.9119 77.2679 45.7699 77.6639C49.0039 78.9179 52.6999 82.0199 63.5899 82.0199C70.2559 82.0199 80.5519 82.0199 80.5519 82.0199C83.1259 82.0199 85.1719 79.9079 85.1719 77.3999C85.1719 74.8919 83.0599 72.7799 80.5519 72.7799H81.0799C83.4559 72.7799 85.5679 71.1299 85.8319 68.7539C86.2279 65.9159 83.9839 63.4739 81.2119 63.4739H81.7399C84.1159 63.4739 86.2279 61.8239 86.4919 59.4479C86.9539 56.6099 84.7099 54.1679 82.0039 54.1679Z" fill="#FAF3D3"/>
<path d="M38.3779 47.766H27.0259C25.7059 47.766 24.6499 48.822 24.6499 50.142V74.628C24.6499 75.948 25.7059 77.004 27.0259 77.004H38.4439C39.7639 77.004 40.8199 75.948 40.8199 74.628V50.076C40.7539 48.822 39.6979 47.766 38.3779 47.766ZM32.7019 71.724C31.3159 71.724 30.1939 70.602 30.1939 69.216C30.1939 67.83 31.3159 66.708 32.7019 66.708C34.0879 66.708 35.2099 67.83 35.2099 69.216C35.2099 70.602 34.0879 71.724 32.7019 71.724Z" fill="#FAF3D3"/>
<path d="M47.4199 32.454C47.9479 32.454 48.4099 31.992 48.4099 31.464V27.636C48.4099 27.042 47.9479 26.646 47.4199 26.646H41.8099V21.036C41.8099 20.442 41.4139 19.98 40.8199 19.98H36.9919C36.4639 19.98 36.0019 20.442 36.0019 20.97V26.58H30.3919C29.8639 26.58 29.4019 27.042 29.4019 27.57V31.398C29.4019 31.926 29.8639 32.388 30.3919 32.388H36.0019V37.998C36.0019 38.526 36.4639 38.988 36.9919 38.988H40.8199C41.3479 38.988 41.8099 38.526 41.8099 37.998V32.388H47.4199V32.454Z" fill="#FAF3D3"/>
</svg>
