<svg width="112" height="112" viewBox="0 0 112 112" fill="none" xmlns="http://www.w3.org/2000/svg">
<circle cx="56" cy="56" r="52.5" stroke="#FAF3D3" stroke-width="7"/>
<path d="M86.2246 24.9578L84.3161 26.8664L83.9524 26.5027C82.2053 24.7557 79.2439 25.3463 78.3006 27.6295L75.7387 33.8305C75.4916 34.4281 75.4772 35.0235 75.6221 35.5604L55.5313 55.6511C54.9993 56.1831 54.9993 57.0456 55.5313 57.5769C55.7977 57.8432 56.1461 57.9757 56.4946 57.9757C56.843 57.9757 57.1915 57.8425 57.4578 57.5769L77.5485 37.4862C78.0854 37.6311 78.6808 37.6166 79.2784 37.3696L85.4794 34.8076C87.7626 33.8644 88.3532 30.9029 86.6062 29.1558L86.2425 28.7922L88.1511 26.8836C88.6831 26.3516 88.6831 25.4891 88.1511 24.9578C87.6191 24.4258 86.7566 24.4258 86.2246 24.9578Z" fill="#FAF3D3"/>
<path d="M79.7987 38.6288C79.2964 38.8365 78.7726 38.9421 78.242 38.9421C78.242 38.9421 78.0971 38.94 78.0247 38.9359L76.8717 40.0889C80.5128 44.618 82.6994 50.3643 82.6994 56.6144C82.6994 71.1837 70.8466 83.0365 56.278 83.0365C41.7086 83.0365 29.8558 71.1837 29.8558 56.6144C29.8558 42.0457 41.7086 30.1929 56.278 30.1929C62.6384 30.1929 68.4806 32.4526 73.0456 36.2111L74.1731 35.0836C74.1414 34.4847 74.2435 33.8837 74.4802 33.311L74.574 33.084C69.5177 29.1441 63.1697 26.7877 56.278 26.7877C39.8304 26.787 26.45 40.1675 26.45 56.6144C26.45 73.0612 39.8304 86.4417 56.2773 86.4417C72.7234 86.4417 86.1039 73.0612 86.1039 56.6144C86.1039 49.8282 83.8214 43.5671 79.9898 38.5495L79.7987 38.6288Z" fill="#FAF3D3"/>
<path d="M68.2977 40.9582C64.9657 38.3935 60.7981 36.8638 56.2772 36.8638C45.3869 36.8638 36.5266 45.7241 36.5266 56.6143C36.5266 67.5046 45.3869 76.3649 56.2772 76.3649C67.1674 76.3649 76.0277 67.5046 76.0277 56.6143C76.0277 52.2045 74.5746 48.128 72.1223 44.8381L69.6818 47.2786C71.5324 49.9275 72.6219 53.1457 72.6219 56.615C72.6219 65.6278 65.2893 72.9604 56.2765 72.9604C47.2637 72.9604 39.9318 65.6271 39.9318 56.6143C39.9318 47.6016 47.2644 40.2689 56.2772 40.2689C59.8576 40.2689 63.1703 41.4295 65.8661 43.3891L68.2977 40.9582Z" fill="#FAF3D3"/>
<path d="M60.7008 48.5545C59.3878 47.8321 57.8815 47.4194 56.2773 47.4194C51.1995 47.4194 47.083 51.536 47.083 56.6137C47.083 61.6914 51.1995 65.8079 56.2773 65.8079C61.355 65.8079 65.4715 61.6914 65.4715 56.6137C65.4715 55.1247 65.1093 53.7233 64.4814 52.4792L58.4204 58.5402C57.9057 59.0549 57.2219 59.3385 56.4946 59.3385C55.7667 59.3385 55.0836 59.0549 54.5688 58.5402C54.0541 58.0261 53.7705 57.3423 53.7705 56.6144C53.7705 55.8864 54.0541 55.2026 54.5688 54.6879L60.7008 48.5545Z" fill="#FAF3D3"/>
</svg>
