<svg width="112" height="112" viewBox="0 0 112 112" fill="none" xmlns="http://www.w3.org/2000/svg">
<circle cx="56" cy="56" r="52.5" stroke="#FAF3D3" stroke-width="7"/>
<path d="M74.4961 67.968C74.2818 67.6822 74.0133 67.4415 73.7059 67.2595C73.3986 67.0775 73.0584 66.9579 72.7048 66.9073C72.3512 66.8568 71.9911 66.8765 71.645 66.9651C71.299 67.0538 70.9739 67.2097 70.6881 67.424C70.4023 67.6383 70.1616 67.9068 69.9796 68.2142C69.7976 68.5215 69.6779 68.8617 69.6274 69.2153C69.5769 69.5689 69.5965 69.929 69.6852 70.2751C69.7738 70.6211 69.9298 70.9462 70.1441 71.232L78.3041 82.112C78.7369 82.6891 79.3813 83.0706 80.0954 83.1727C80.8096 83.2747 81.535 83.0888 82.1121 82.656C82.6892 82.2232 83.0707 81.5788 83.1728 80.8647C83.2748 80.1505 83.0889 79.4251 82.6561 78.848L74.4961 67.968Z" fill="#FAF3D3"/>
<path d="M37.504 67.968L29.344 78.848C29.1297 79.1338 28.9738 79.4589 28.8851 79.805C28.7965 80.151 28.7769 80.5111 28.8274 80.8647C28.8779 81.2183 28.9976 81.5585 29.1796 81.8658C29.3615 82.1732 29.6023 82.4417 29.888 82.656C30.1738 82.8703 30.499 83.0263 30.845 83.1149C31.191 83.2036 31.5511 83.2232 31.9047 83.1727C32.2583 83.1222 32.5985 83.0025 32.9059 82.8205C33.2132 82.6385 33.4817 82.3978 33.696 82.112L41.8561 71.232C42.2889 70.6549 42.4747 69.9295 42.3727 69.2153C42.2707 68.5012 41.8892 67.8569 41.312 67.424C40.7349 66.9912 40.0095 66.8053 39.2954 66.9074C38.5812 67.0094 37.9369 67.3909 37.504 67.968Z" fill="#FAF3D3"/>
<path d="M56 69.6C55.2786 69.6 54.5868 69.8865 54.0767 70.3966C53.5666 70.9067 53.28 71.5986 53.28 72.32V85.92C53.28 86.6414 53.5666 87.3332 54.0767 87.8433C54.5868 88.3534 55.2786 88.64 56 88.64C56.7214 88.64 57.4133 88.3534 57.9234 87.8433C58.4335 87.3332 58.72 86.6414 58.72 85.92V72.32C58.72 71.5986 58.4335 70.9067 57.9234 70.3966C57.4133 69.8865 56.7214 69.6 56 69.6Z" fill="#FAF3D3"/>
<path d="M69.4573 35.5456C69.1215 32.2099 67.5589 29.1178 65.0723 26.869C62.5858 24.6202 59.3527 23.375 56.0001 23.375C52.6475 23.375 49.4144 24.6202 46.9279 26.869C44.4414 29.1178 42.8787 32.2099 42.5429 35.5456C31.9077 37.64 23.3601 42.2776 23.3601 49.2C23.3601 58.9172 40.1765 64.16 56.0001 64.16C71.8237 64.16 88.6401 58.9172 88.6401 49.2C88.6401 42.2776 80.0925 37.64 69.4573 35.5456ZM56.0001 28.8001C58.1643 28.8001 60.2398 29.6598 61.7701 31.1901C63.3004 32.7204 64.1601 34.7959 64.1601 36.96V43.6444C62.9769 44.236 60.4813 45.12 56.0001 45.12C51.5189 45.12 49.0233 44.2292 47.8401 43.6444V36.96C47.8401 34.7959 48.6998 32.7204 50.2301 31.1901C51.7604 29.6598 53.8359 28.8001 56.0001 28.8001ZM56.0001 58.72C39.1497 58.72 28.8001 53.178 28.8001 49.2C28.8001 46.48 33.7913 42.9848 42.4001 41.0876V45.12C42.4024 45.4772 42.474 45.8305 42.6109 46.1604C42.7449 46.4912 42.9437 46.7918 43.1957 47.0445C43.7601 47.636 47.1601 50.56 56.0001 50.56C64.8401 50.56 68.2401 47.636 68.8045 47.0445C69.057 46.7917 69.2572 46.4916 69.3938 46.1614C69.5303 45.8312 69.6004 45.4774 69.6001 45.12V41.0876C78.2089 42.9848 83.2001 46.48 83.2001 49.2C83.2001 53.178 72.8505 58.72 56.0001 58.72Z" fill="#FAF3D3"/>
</svg>
